<?xml version="1.0" encoding="iso-8859-1"?>
<!-- Generator: Adobe Illustrator 15.1.0, SVG Export Plug-In . SVG Version: 6.00 Build 0)  -->
<!DOCTYPE svg PUBLIC "-//W3C//DTD SVG 1.1//EN" "http://www.w3.org/Graphics/SVG/1.1/DTD/svg11.dtd">
<svg version="1.1" id="Layer_1" xmlns="http://www.w3.org/2000/svg" xmlns:xlink="http://www.w3.org/1999/xlink" x="0px" y="0px"
	 width="216px" height="216px" viewBox="0 0 216 216" style="enable-background:new 0 0 216 216;" xml:space="preserve">
<path style="fill:#004835;stroke:#000000;stroke-width:1.5;stroke-miterlimit:10;" d="M206.588,20.988L88.007,20.99
	c-0.067,0.007-0.133,0.02-0.202,0.02c-1.021,0-1.848-0.827-1.848-1.848V9.761c0-1.466-1.188-2.655-2.654-2.655H19.423
	c-1.466,0-2.655,1.188-2.655,2.655v9.284c0.003,0.04,0.012,0.077,0.012,0.117c0,1.021-0.828,1.848-1.848,1.848
	c-0.067,0-0.131-0.012-0.196-0.02H7.955C5.879,21.003,4.2,22.688,4.2,24.766c0,0.042,1.221,122.847,1.247,125.357
	c0.057,1.066,0.933,1.917,2.014,1.917h199.637c1.107,0,2.006-0.891,2.021-1.995c0-0.013,1.248-125.159,1.248-125.28
	C210.367,22.679,208.676,20.988,206.588,20.988z"/>
<g>
	<path style="fill:#006A51;" d="M3.564,170.517c-0.747,0-1.363-0.588-1.403-1.338c-0.02-1.995-1.326-137.572-1.33-138.127
		c0-1.793,1.465-3.266,3.265-3.276l207.87-0.002c1.811,0,3.283,1.474,3.283,3.285c-0.005,0.709-1.406,137.49-1.414,138.066
		c-0.012,0.768-0.644,1.393-1.408,1.393H3.564z"/>
	<path d="M211.967,28.523L211.967,28.523c1.396,0,2.533,1.137,2.533,2.524c-0.006,0.713-1.403,137.156-1.414,138.064v0.002
		c-0.005,0.36-0.301,0.653-0.658,0.653H3.564c-0.34,0-0.623-0.264-0.652-0.604C2.879,165.86,1.587,31.7,1.582,31.058
		c0-1.388,1.13-2.524,2.511-2.532L211.967,28.523 M211.967,27.023L4.092,27.025c-2.217,0.013-4.011,1.813-4.011,4.032
		c0,0.045,1.304,135.48,1.331,138.161c0.061,1.14,0.997,2.048,2.152,2.048h208.863c1.182,0,2.141-0.952,2.158-2.131
		C214.588,169.123,216,31.187,216,31.058C216,28.829,214.193,27.023,211.967,27.023L211.967,27.023z"/>
</g>
<g>
	<path style="stroke:#000000;stroke-width:1.5;stroke-miterlimit:10;" d="M199.1,199.245L83.562,63.108
		c-1.112-1.308-4.278-0.444-7.074,1.929c-2.797,2.375-4.162,5.361-3.05,6.668l115.535,136.138c1.113,1.308,4.279,0.444,7.077-1.93
		C198.845,203.538,200.209,200.554,199.1,199.245z"/>
	<path style="fill:#FFFFFF;stroke:#000000;stroke-width:1.5;stroke-miterlimit:10;" d="M108.441,92.403L83.562,63.108
		c-1.112-1.308-4.278-0.444-7.074,1.929c-2.797,2.375-4.162,5.361-3.05,6.668l24.879,29.296c1.112,1.309,4.279,0.445,7.074-1.93
		C108.187,96.697,109.552,93.713,108.441,92.403z"/>
	
		<ellipse transform="matrix(0.6472 0.7624 -0.7624 0.6472 79.0859 -36.0608)" style="fill:#FFFFFF;stroke:#000000;stroke-width:1.5;stroke-miterlimit:10;" cx="78.5" cy="67.407" rx="3.109" ry="6.641"/>
</g>
<polygon style="fill:#FFCF01;stroke:#000000;stroke-width:1.5;stroke-miterlimit:10;" points="24.372,119.178 33.069,127.741 
	45.055,125.431 39.599,136.349 45.5,147.033 33.429,145.218 25.093,154.132 23.088,142.091 12.036,136.917 22.866,131.291 "/>
<polygon style="fill:#FFCF01;stroke:#000000;stroke-width:1.5;stroke-miterlimit:10;" points="33.518,62.132 38.086,71.39 
	48.304,72.875 40.91,80.083 42.656,90.257 33.518,85.453 24.379,90.257 26.125,80.083 18.731,72.875 28.949,71.39 "/>
<polygon style="fill:#FFCF01;stroke:#000000;stroke-width:1.5;stroke-miterlimit:10;" points="61.118,41.928 64.045,47.858 
	70.59,48.81 65.854,53.425 66.971,59.944 61.118,56.866 55.182,59.944 56.301,53.425 51.564,48.81 58.109,47.858 "/>
</svg>
